<svg id="Ebene_1" data-name="Ebene 1" xmlns="http://www.w3.org/2000/svg" viewBox="0 0 1024 1024"><defs><style>.cls-1{fill:#c0cc19;}.cls-2{fill:#fff;}</style></defs><title>MQTT_Logo_farbig</title><path class="cls-1" d="M151.18,633.12c-45.77-45.77-29.62-133.62,36.77-200,43.21-43.22,119.42-62.9,171.94-62.89h2.91c.84,0,1.68-.05,2.52-.05a142.6,142.6,0,0,1,31.07,3.46,111.06,111.06,0,0,1,25.92,8.49c16.68,7.46,37.18,24.49,43.14,29.6l1.25,1.07,1.14,1.18c.46.48.88.95,1.34,1.47,1.3,1.41,4.28,4.76,5.41,6.12l.71.87a155.09,155.09,0,0,1,16.12,24.19c.7-.57,1.36-1.15,2-1.7l39.26-39.21a100.33,100.33,0,0,1,53-32.72c.91-.24,1.7-.43,2.36-.58l.22,0,.06,0,.3-.06c.86-.2,1.7-.36,2.56-.5,20-3.11,29.83-10.45,32.42-12.66l1.9-1.91,59.91-59.84a126.67,126.67,0,0,1,57.3-34.83,64.79,64.79,0,0,1,14.66-3.24h0c1.13-.17,2.27-.33,3.4-.48,18.49-2.82,31.55-13.69,35.56-17.42l2.16-2.16,43.08-43.08,2.31-2.31,2.7-1.82a71.9,71.9,0,0,1,13.67-7.29l-.26-.27q-4-4.24-8.09-8.39c-1.44-1.45-2.92-2.88-4.38-4.32s-3-3-4.58-4.5-3.06-2.88-4.6-4.32-3-2.86-4.59-4.27-3.16-2.84-4.75-4.24-3.1-2.75-4.67-4.11-3.23-2.76-4.86-4.13-3.17-2.67-4.78-4-3.29-2.68-5-4-3.27-2.59-4.92-3.86-3.33-2.59-5-3.86-3.38-2.53-5.07-3.78-3.37-2.48-5.07-3.69-3.53-2.49-5.3-3.72-3.34-2.34-5-3.48c-1.89-1.28-3.81-2.53-5.72-3.78-1.61-1.06-3.2-2.13-4.82-3.16-2.46-1.58-5-3.1-7.44-4.63-2.17-1.34-4.36-2.65-6.55-4-2.44-1.44-4.88-2.89-7.34-4.29-1.61-.91-3.23-1.79-4.85-2.68-2.09-1.15-4.17-2.31-6.28-3.44-1.71-.91-3.44-1.8-5.17-2.69-2-1.06-4.08-2.12-6.13-3.14-1.78-.89-3.56-1.75-5.35-2.62-2-1-4.08-2-6.14-2.93-1.81-.84-3.62-1.66-5.44-2.48-2.07-.94-4.16-1.87-6.25-2.78q-2.73-1.19-5.47-2.33c-2.13-.9-4.27-1.77-6.41-2.63-1.81-.73-3.62-1.46-5.45-2.17q-3.33-1.29-6.71-2.53c-1.76-.65-3.52-1.32-5.29-2-2.4-.85-4.81-1.67-7.21-2.49-1.65-.56-3.3-1.14-5-1.68-2.86-.93-5.75-1.82-8.63-2.7-1.23-.38-2.44-.78-3.67-1.14q-6.13-1.83-12.34-3.49c-1.23-.33-2.47-.62-3.7-.94-3-.77-5.92-1.53-8.9-2.25-1.63-.39-3.28-.74-4.91-1.11-2.61-.6-5.21-1.19-7.84-1.74-1.77-.37-3.56-.71-5.34-1.07-2.5-.49-5-1-7.53-1.44q-2.77-.5-5.56-1c-2.48-.42-5-.82-7.46-1.2q-2.82-.43-5.65-.83-3.75-.52-7.53-1-2.82-.36-5.65-.68c-2.56-.29-5.13-.54-7.71-.79-1.85-.18-3.7-.36-5.56-.51-2.69-.23-5.39-.41-8.08-.59-1.76-.12-3.51-.25-5.26-.35-3-.17-6-.29-9-.4-1.48,0-3-.13-4.45-.17q-6.74-.19-13.52-.2C248.39,33.92,33.92,248.39,33.92,512c0,5.58.11,11.13.3,16.65.07,1.84.18,3.66.27,5.49.16,3.68.35,7.37.6,11,.15,2.17.34,4.34.52,6.5.27,3.3.57,6.6.91,9.88.23,2.29.49,4.58.76,6.85.37,3.15.78,6.28,1.21,9.41q.48,3.48,1,7c.47,3.09,1,6.16,1.53,9.23.4,2.28.78,4.57,1.21,6.84.6,3.19,1.27,6.35,1.93,9.52.44,2.1.85,4.22,1.32,6.32q1.68,7.47,3.58,14.85c.61,2.35,1.29,4.68,1.93,7,.76,2.75,1.5,5.49,2.3,8.21s1.6,5.24,2.42,7.85c.75,2.39,1.49,4.77,2.27,7.14.9,2.71,1.84,5.41,2.78,8.1q1.17,3.33,2.38,6.63,1.52,4.14,3.11,8.23c.81,2.08,1.64,4.14,2.47,6.2,1.14,2.8,2.28,5.6,3.47,8.38.8,1.87,1.63,3.73,2.46,5.59,1.29,2.91,2.57,5.83,3.92,8.72.61,1.31,1.26,2.6,1.89,3.91,3.61,7.54,7.37,15,11.35,22.31a.16.16,0,0,0,0,.07l88.67-88.74C168.68,646.83,158.87,640.82,151.18,633.12Z"/><path class="cls-2" d="M993.58,685.87h0q-3.17,8.75-6.63,17.34Q990.41,694.61,993.58,685.87Z"/><path class="cls-2" d="M971.72,737.23q-3.24,6.59-6.67,13Q968.47,743.82,971.72,737.23Z"/><path class="cls-2" d="M964.56,751.22q-3.43,6.48-7.06,12.87Q961.13,757.7,964.56,751.22Z"/><path class="cls-2" d="M875.92,259c2-1.91,10.55-9,26.5-9h49.24q5,8.37,9.71,17h0a511.86,511.86,0,0,0-32.5-51.78H877.77c-4.79,0-12.28,5.05-12.28,5.05L822.4,263.24l-2.53,2.53c-6.65,6.3-26.21,22.47-54.45,26.65-1,.13-2.08.27-3.11.44-.24,0-.46.08-.7.1a28.71,28.71,0,0,0-8.29,1.84A92.74,92.74,0,0,0,709.68,321L649.4,381.23h0l-2.58,2.58c-5.72,5.23-21.38,17-50.49,21.51-.16,0-.28.06-.43.09l-.55.12a10.86,10.86,0,0,0-1.16.3,65.89,65.89,0,0,0-36.45,22.76L517,469.29S498.64,486.93,482.88,487h-.05c-14.39,0-15-20.09-33.78-43.05-.2-.23-.38-.47-.58-.7-.67-.81-3.54-4.06-4.29-4.85-.27-.29-.51-.59-.8-.88,0,0-21.95-18.81-35.35-24.59a77,77,0,0,0-18.77-6.1,107.91,107.91,0,0,0-23.94-2.7c-.76,0-1.51,0-2.27.06-1,0-2.1,0-3.16,0-49.37,0-113.81,18.82-148,53-52.14,52.14-68.6,120.22-36.77,152.05,10.09,10.09,29.34,15.31,52.58,16.1v.12l2.06-.08c1.43,0,2.88.05,4.34.05,6.58,0,13.42-.33,20.43-1l77.54-3c.7,0,1.36,0,2,0,12.53,0,13.51,5.73,3.21,16-.08.07-.12.14-.2.22l-29.23,29.23c-1.63,1.46-5,5.63-10.21,5.63-3.18,0-7.08-1.54-11.72-6.18h0l-24-24a17.14,17.14,0,0,0-12.2-5,17.43,17.43,0,0,0-11.17,4l-.12-.12L92,787.74a30.54,30.54,0,0,1-7.87,5.09,518.27,518.27,0,0,0,32.23,43.77h0q-5.42-6.6-10.62-13.37L241.57,687.29a11.56,11.56,0,0,1,7.57-3.15c2.8,0,6.14,1.19,10.06,4.61l25.59,25.58a17.15,17.15,0,0,0,12.2,5.06,17.49,17.49,0,0,0,11.22-4.08,14.22,14.22,0,0,0,2.17-1.75l74.88-74.88c11.5-10.58,32.15-24.9,48-31.85l.18-.09c31.79-13.19,50.91-32.45,56.51-38.66h0a20.14,20.14,0,0,1,14.61-6.1c5.69,0,11.81,2.27,17.15,7.6h0l63.65,63.65a13.75,13.75,0,0,0,2.17,1.75,17.42,17.42,0,0,0,11.22,4.08,17.16,17.16,0,0,0,12.2-5l25.59-25.59c3.92-3.42,7.26-4.61,10.06-4.61a11.72,11.72,0,0,1,7.71,3.27L839.75,792.49A17.34,17.34,0,0,0,852,797.55h84.75q-5.67,8.41-11.7,16.58a513.81,513.81,0,0,0,32.43-50,17.54,17.54,0,0,0-6.73-1.35h-74.1c-15.95,0-24.5-7.15-26.5-9l-.47-.47L657.3,560.81l-.12.12a17.43,17.43,0,0,0-11.17-4,17.2,17.2,0,0,0-12.2,5.05l-24,24h0c-4.64,4.64-8.54,6.18-11.72,6.18-5.25,0-8.58-4.17-10.21-5.62l-27.39-27.4c-11.39-12.33-9-25.53.58-26.47,3.64-.36,7.33-.55,11.06-.55A112.67,112.67,0,0,1,595,534.43v0a65.45,65.45,0,0,0,47.59-7.78l0,.07a23.26,23.26,0,0,1,11.6-3.19c4.72,0,10.32,1.58,15.71,7l52.59,52.6a12.74,12.74,0,0,0,2.17,1.74,17.42,17.42,0,0,0,11.21,4.09,17.19,17.19,0,0,0,12.21-5.06l25.58-25.58c3.92-3.43,7.27-4.62,10.07-4.62a11.74,11.74,0,0,1,7.71,3.28L971.72,737.22q8.21-16.68,15.21-34L794.39,510.66l-.11.12a17.48,17.48,0,0,0-11.18-4,17.19,17.19,0,0,0-12.2,5.06l-24,24c-4.64,4.64-8.53,6.19-11.72,6.19-5.24,0-8.58-4.18-10.2-5.63h0L683.3,494.67h0c-10.82-10.82-6.81-25.17-9.64-37.4,0,0,0,0,0-.08-.38-1.92-.87-3.8-1.41-5.66,0,0,0-.06,0-.1-.34-1.56-3.69-10.35-4.26-19.31,0-.28,0-.62,0-.69a13.78,13.78,0,0,1,26-6.24h0a93,93,0,0,0,108.33,48.71h0l.49-.15c1.52-.43,3-.9,4.51-1.41l63.26-19.67-.35-68.22A92.44,92.44,0,0,0,847,323.06c-.06-.07-.09-.13-.15-.21-14.25-17.2-4.53-30.09-1.2-33.66Z"/><path class="cls-2" d="M928.89,215.09q-6.15-8.61-12.66-17h0Q922.73,206.49,928.89,215.09Z"/><path class="cls-2" d="M84.11,792.83q-4.74-7.2-9.24-14.56h0C77.85,783.19,81,788,84.11,792.83Z"/><path class="cls-1" d="M815.77,816.47,646.12,646.83,635,658a50.83,50.83,0,0,1-36.18,15,51.53,51.53,0,0,1-31.47-10.76,47.23,47.23,0,0,1-5.9-5l-56.32-56.33a201.12,201.12,0,0,1-57.52,36.71l-.47.21-.1.05-.11,0c-12,5.25-29.2,17.19-38.19,25.31l-74.33,74.33a46.4,46.4,0,0,1-5.9,5A51.49,51.49,0,0,1,297,753.31a50.84,50.84,0,0,1-36.19-15l-11.14-11.14-98.24,98.31a481.81,481.81,0,0,0,93.21,82.59l.45.31c3.1,2.1,6.24,4.15,9.39,6.18l1.52,1q4.44,2.82,8.93,5.54l2.17,1.31q4.31,2.58,8.68,5.07l2.62,1.49q4.25,2.38,8.54,4.69c1,.52,1.93,1,2.9,1.54q4.23,2.23,8.52,4.39l3,1.51c2.86,1.41,5.72,2.8,8.61,4.16l3,1.37c2.94,1.35,5.89,2.7,8.86,4,.87.38,1.74.73,2.61,1.1,3.14,1.35,6.29,2.69,9.47,4l.17.07q15.67,6.3,31.88,11.48c1.51.49,3,1,4.52,1.47,2.41.74,4.83,1.44,7.24,2.15,1.9.55,3.79,1.12,5.69,1.65,2.28.64,4.57,1.24,6.86,1.84,2.06.54,4.13,1.09,6.2,1.61,2.22.55,4.46,1.08,6.69,1.6s4.35,1,6.53,1.49,4.37.93,6.56,1.37,4.54.92,6.82,1.35,4.29.79,6.44,1.17q3.54.62,7.1,1.18c2.11.33,4.21.66,6.33,1,2.45.36,4.91.68,7.37,1,2.06.27,4.12.54,6.19.78,2.56.29,5.14.55,7.72.81,2,.2,4,.41,6,.58,2.73.24,5.47.43,8.21.62,1.87.13,3.73.28,5.6.39,3.08.18,6.16.3,9.25.42,1.56.06,3.11.14,4.67.19q7,.21,14,.21c4.67,0,9.31-.08,14-.21,1.53,0,3.06-.13,4.59-.19,3.09-.12,6.18-.24,9.25-.42,1.83-.1,3.64-.24,5.46-.37,2.77-.19,5.54-.39,8.3-.62,1.93-.17,3.85-.36,5.77-.55,2.63-.26,5.26-.54,7.87-.84q3-.35,5.92-.72c2.55-.33,5.1-.68,7.63-1q3-.42,6-.89,3.76-.6,7.5-1.25c2-.35,3.95-.69,5.92-1.06,2.5-.46,5-1,7.46-1.47,1.94-.4,3.88-.78,5.81-1.2,2.56-.55,5.1-1.15,7.64-1.75,1.83-.43,3.66-.83,5.47-1.28,3-.75,6.08-1.56,9.1-2.37,2.81-.75,5.6-1.53,8.39-2.33,2.59-.75,5.19-1.49,7.76-2.28,2.12-.64,4.21-1.34,6.32-2s4.17-1.33,6.24-2,4.4-1.53,6.59-2.3c1.94-.69,3.88-1.37,5.8-2.08,2.25-.83,4.48-1.68,6.71-2.54,1.84-.71,3.67-1.42,5.49-2.15,2.28-.91,4.54-1.84,6.8-2.79,1.74-.72,3.47-1.46,5.19-2.2,2.31-1,4.62-2,6.91-3,1.61-.73,3.21-1.47,4.82-2.22,2.37-1.1,4.75-2.21,7.1-3.35,1.42-.69,2.83-1.4,4.25-2.1,2.5-1.25,5-2.49,7.47-3.77,1-.54,2.07-1.1,3.11-1.65q19.76-10.46,38.4-22.64c.62-.4,1.24-.79,1.86-1.2,2.71-1.79,5.4-3.63,8.07-5.47l2.51-1.73q3.87-2.72,7.69-5.51c.88-.64,1.76-1.28,2.63-1.93q3.81-2.81,7.55-5.7l2.48-1.92q3.79-3,7.55-6l2.1-1.73c2.6-2.14,5.19-4.3,7.74-6.49.46-.39.9-.79,1.35-1.18a482.48,482.48,0,0,0,42.84-42H852A51,51,0,0,1,815.77,816.47Z"/><path class="cls-1" d="M989.5,489.52c-.18-3.69-.37-7.36-.62-11-.16-2.26-.35-4.52-.54-6.77q-.4-4.87-.91-9.72-.37-3.63-.81-7.24c-.36-3-.77-6-1.19-9-.35-2.51-.69-5-1.08-7.53-.44-2.83-.94-5.64-1.43-8.45-.46-2.61-.89-5.24-1.39-7.83-.45-2.35-1-4.67-1.45-7q-2-9.39-4.25-18.64c-.36-1.43-.69-2.88-1.06-4.31-.91-3.5-1.89-7-2.88-10.44-.44-1.54-.86-3.09-1.32-4.63-1-3.53-2.14-7-3.26-10.52-.44-1.37-.88-2.75-1.33-4.12q-1.82-5.47-3.75-10.89l-1.11-3c-1.45-3.94-2.92-7.87-4.46-11.77,0-.1-.09-.21-.13-.31a478.12,478.12,0,0,0-24.61-52.42h-29.5a11.65,11.65,0,0,0-4,.56l-21.54,21.55a126.43,126.43,0,0,1,27.26,78.33l.35,68.21.13,25.11-24,7.46-48.76,15.16L972.44,640.74q4.3-15.36,7.59-31.11v0q1.61-7.68,3-15.46l.18-1c.85-5,1.64-10,2.34-15,0-.17,0-.35.07-.52q1-7.49,1.82-15c.09-.82.17-1.64.25-2.45.48-4.75.9-9.52,1.23-14.31,0-.27,0-.54.07-.81.33-4.89.57-9.81.76-14.74,0-1.12.08-2.24.11-3.36.16-4.94.26-9.9.26-14.88,0-5.64-.12-11.24-.31-16.83C989.7,493.28,989.58,491.4,989.5,489.52Z"/><path d="M839.75,792.49,654.33,607.08a11.72,11.72,0,0,0-7.71-3.27c-2.8,0-6.14,1.19-10.06,4.61L611,634a17.16,17.16,0,0,1-12.2,5A17.42,17.42,0,0,1,587.55,635a13.75,13.75,0,0,1-2.17-1.75l-63.65-63.65h0c-5.34-5.33-11.46-7.6-17.15-7.6a20.14,20.14,0,0,0-14.61,6.1h0c-5.6,6.21-24.72,25.47-56.51,38.66l-.18.09c-15.86,6.95-36.51,21.27-48,31.85l-74.88,74.88a14.22,14.22,0,0,1-2.17,1.75A17.49,17.49,0,0,1,297,719.39a17.15,17.15,0,0,1-12.2-5.06L259.2,688.75c-3.92-3.42-7.26-4.61-10.06-4.61a11.56,11.56,0,0,0-7.57,3.15L105.74,823.22q5.2,6.76,10.62,13.37h0c3.48,4.23,7,8.38,10.65,12.49.13.15.25.31.39.46h0C221.29,956.41,358.89,1024,512,1024c161.56,0,305.82-75.27,399.72-192.53h.07c.54-.68,1.05-1.39,1.59-2.07q4.79-6,9.39-12.22c.76-1,1.54-2,2.29-3h0c4-5.45,7.93-11,11.71-16.59H852A17.34,17.34,0,0,1,839.75,792.49ZM512,990.08c-143.77,0-272.87-63.83-360.58-164.59l98.24-98.31,11.14,11.14a50.84,50.84,0,0,0,36.19,15,51.49,51.49,0,0,0,31.47-10.77,46.4,46.4,0,0,0,5.9-5l74.33-74.33c9-8.12,26.22-20.06,38.19-25.31l.11,0,.1-.05.47-.21a201.12,201.12,0,0,0,57.52-36.71l56.32,56.33a47.23,47.23,0,0,0,5.9,5A51.53,51.53,0,0,0,598.77,673,50.83,50.83,0,0,0,635,658l11.17-11.17L815.77,816.47a51,51,0,0,0,36.25,15h15.3C779.75,928.78,652.91,990.08,512,990.08Z"/><path d="M999.67,668a511.44,511.44,0,0,0-29.44-384.14h0l-.34-.66c-2.76-5.49-5.57-10.93-8.52-16.3h0q-4.7-8.57-9.71-17H902.42c-15.95,0-24.5,7.14-26.5,9l-30.24,30.23c-3.33,3.57-13,16.46,1.2,33.66.06.08.09.14.15.21a92.44,92.44,0,0,1,23.22,61.38l.35,68.22-63.26,19.67c-1.49.51-3,1-4.51,1.41l-.49.15h0A93,93,0,0,1,694,425.18h0a13.78,13.78,0,0,0-26,6.24c0,.07,0,.41,0,.69.57,9,3.92,17.75,4.26,19.31,0,0,0,.07,0,.1.54,1.86,1,3.74,1.41,5.66,0,0,0,0,0,.08,2.83,12.23-1.18,26.58,9.64,37.4h0L725,536.34h0c1.62,1.45,5,5.63,10.2,5.63,3.19,0,7.08-1.55,11.72-6.19l24-24a17.19,17.19,0,0,1,12.2-5.06,17.48,17.48,0,0,1,11.18,4l.11-.12L986.93,703.2q3.48-8.6,6.64-17.34h0c2.07-5.72,4-11.49,5.89-17.3l.21-.6Zm-119-182.92,24-7.46-.13-25.11-.35-68.21a126.43,126.43,0,0,0-27.26-78.33l21.54-21.55a11.65,11.65,0,0,1,4-.56h29.5a477.33,477.33,0,0,1,40.52,356.91L831.92,500.21Z"/><path d="M238.58,641.26a17.43,17.43,0,0,1,11.17-4,17.14,17.14,0,0,1,12.2,5l24,24h0c4.64,4.64,8.54,6.18,11.72,6.18,5.25,0,8.58-4.17,10.21-5.63l29.23-29.23c.08-.08.12-.15.2-.22,10.3-10.31,9.32-16-3.21-16-.63,0-1.29,0-2,0l-77.54,3c-7,.67-13.85,1-20.43,1-1.46,0-2.91,0-4.34-.05l-2.06.08v-.12c-23.24-.79-42.49-6-52.58-16.1-31.83-31.83-15.37-99.91,36.77-152,34.15-34.14,98.59-53,148-53,1.06,0,2.12,0,3.16,0,.76,0,1.51-.06,2.27-.06a107.91,107.91,0,0,1,23.94,2.7A77,77,0,0,1,408,412.9c13.4,5.78,35.35,24.59,35.35,24.59.29.29.53.59.8.88.75.79,3.62,4,4.29,4.85.2.23.38.47.58.7,18.78,23,19.39,43.05,33.78,43.05h.05c15.76,0,34.09-17.66,34.11-17.68l40.75-40.7a65.89,65.89,0,0,1,36.45-22.76,10.86,10.86,0,0,1,1.16-.3l.55-.12c.15,0,.27-.07.43-.09,29.11-4.54,44.77-16.28,50.49-21.51l2.58-2.58h0L709.68,321a92.74,92.74,0,0,1,43.64-26.22,28.71,28.71,0,0,1,8.29-1.84c.24,0,.46-.07.7-.1,1-.17,2.07-.31,3.11-.44,28.24-4.18,47.8-20.35,54.45-26.65l2.53-2.53,43.09-43.09s7.49-5.05,12.28-5.05h51.12c-2.7-3.78-5.54-7.47-8.35-11.18-1.45-1.91-2.84-3.88-4.32-5.78h0a.69.69,0,0,1-.11-.13c-.19-.25-.39-.49-.59-.73-3.86-4.94-7.84-9.79-11.88-14.59-.41-.49-.8-1-1.22-1.5h0C808.39,70.43,668.29,0,512,0,229.68,0,0,229.68,0,512A508.9,508.9,0,0,0,74.84,778.27h0q4.51,7.35,9.24,14.56A30.54,30.54,0,0,0,92,787.74l146.48-146.6ZM91.85,739.88A475,475,0,0,1,33.92,512C33.92,248.39,248.39,33.92,512,33.92c137.12,0,260.93,58,348.18,150.83A71.9,71.9,0,0,0,846.51,192l-2.7,1.82-2.31,2.31-43.08,43.08-2.16,2.16c-4,3.73-17.07,14.6-35.56,17.42-1.13.15-2.27.31-3.4.48h0a64.79,64.79,0,0,0-14.66,3.24,126.67,126.67,0,0,0-57.3,34.83l-59.91,59.84-1.9,1.91c-2.59,2.21-12.45,9.55-32.42,12.66-.86.14-1.7.3-2.56.5l-.3.06-.06,0-.22,0c-.66.15-1.45.34-2.36.58a100.33,100.33,0,0,0-53,32.72l-39.26,39.21c-.6.55-1.26,1.13-2,1.7a155.09,155.09,0,0,0-16.12-24.19l-.71-.87c-1.13-1.36-4.11-4.71-5.41-6.12-.46-.52-.88-1-1.34-1.47l-1.14-1.18-1.25-1.07c-6-5.11-26.46-22.14-43.14-29.6a111.06,111.06,0,0,0-25.92-8.49,142.6,142.6,0,0,0-31.07-3.46c-.84,0-1.68,0-2.52.05h-2.91c-52.52,0-128.73,19.67-171.94,62.89-66.39,66.39-82.54,154.24-36.77,200,7.69,7.7,17.5,13.71,29.34,18Z"/><path class="cls-1" d="M772.05,607.83a51.48,51.48,0,0,1-11.24,8.53l111.9,111.9a11.63,11.63,0,0,0,4,.56h38.68L783.21,596.68Z"/><path d="M946.28,711.78,791.43,556.93a11.74,11.74,0,0,0-7.71-3.28c-2.8,0-6.15,1.19-10.07,4.62l-25.58,25.58a17.19,17.19,0,0,1-12.21,5.06,17.42,17.42,0,0,1-11.21-4.09,12.74,12.74,0,0,1-2.17-1.74l-52.59-52.6c-5.39-5.39-11-7-15.71-7a23.26,23.26,0,0,0-11.6,3.19l0-.07A65.45,65.45,0,0,1,595,534.41v0a112.67,112.67,0,0,0-22.88-2.35c-3.73,0-7.42.19-11.06.55-9.62.94-12,14.14-.58,26.47l27.39,27.4c1.63,1.45,5,5.62,10.21,5.62,3.18,0,7.08-1.54,11.72-6.18h0l24-24a17.2,17.2,0,0,1,12.2-5.05,17.43,17.43,0,0,1,11.17,4l.12-.12L849.7,753.22l.47.47c2,1.9,10.55,9,26.5,9h74.1a17.54,17.54,0,0,1,6.73,1.35q3.63-6.39,7.07-12.9h0l.46-.88h0c2.28-4.33,4.52-8.69,6.68-13.09l-25.44-25.44Zm-67.69,17h-1.92a11.63,11.63,0,0,1-4-.56l-111.9-111.9a51.48,51.48,0,0,0,11.24-8.53l11.16-11.15L915.35,728.82Z"/></svg>