<?xml version="1.0" encoding="UTF-8" standalone="no"?>
<svg
        xmlns:dc="http://purl.org/dc/elements/1.1/"
        xmlns:cc="http://creativecommons.org/ns#"
        xmlns:rdf="http://www.w3.org/1999/02/22-rdf-syntax-ns#"
        xmlns="http://www.w3.org/2000/svg"
        xmlns:sodipodi="http://sodipodi.sourceforge.net/DTD/sodipodi-0.dtd"
        xmlns:inkscape="http://www.inkscape.org/namespaces/inkscape"
        aria-hidden="true"
        focusable="false"
        data-prefix="far"
        data-icon="check-square"
        class="svg-inline--fa fa-check-square fa-w-14"
        role="img"
        viewBox="0 0 512 512"
        version="1.1"
        id="svg827"
        sodipodi:docname="check-unchecked.svg"
        width="512"
        height="512"
        inkscape:version="0.92.4 (5da689c313, 2019-01-14)">
  <metadata
     id="metadata833">
    <rdf:RDF>
      <cc:Work
         rdf:about="">
        <dc:format>image/svg+xml</dc:format>
        <dc:type
           rdf:resource="http://purl.org/dc/dcmitype/StillImage" />
        <dc:title />
      </cc:Work>
    </rdf:RDF>
  </metadata>
  <defs
     id="defs831" />
  <sodipodi:namedview
     pagecolor="#ffffff"
     bordercolor="#666666"
     borderopacity="1"
     objecttolerance="10"
     gridtolerance="10"
     guidetolerance="10"
     inkscape:pageopacity="0"
     inkscape:pageshadow="2"
     inkscape:window-width="2560"
     inkscape:window-height="1377"
     id="namedview829"
     showgrid="false"
     inkscape:zoom="1.6683301"
     inkscape:cx="106.9878"
     inkscape:cy="243.53519"
     inkscape:window-x="-8"
     inkscape:window-y="-8"
     inkscape:window-maximized="1"
     inkscape:current-layer="svg827"
     showguides="false" />
  <path
     d="M 346.35715,282 H 165.64286 C 152.03281,282 141,293.03281 141,306.64285 v 180.7143 C 141,500.96719 152.03281,512 165.64286,512 H 346.35715 C 359.96719,512 371,500.96719 371,487.35715 V 306.64285 C 371,293.03281 359.96719,282 346.35715,282 Z m 0,205.35715 H 165.64286 v -180.7143 h 180.71429 z"
     id="path825"
     inkscape:connector-curvature="0"
     style="fill:currentColor;stroke-width:0.51339275"
     sodipodi:nodetypes="sssssssssccccc" />
  <path
     d="M 346.35715,0 H 165.64285 C 152.03281,0 141,11.032815 141,24.642854 V 205.35715 C 141,218.96719 152.03281,230 165.64285,230 h 180.7143 C 359.96719,230 371,218.96719 371,205.35715 V 24.642854 C 371,11.032815 359.96719,0 346.35715,0 Z m 0,205.35715 H 165.64285 V 24.642854 h 180.7143 z"
     id="path825-9"
     inkscape:connector-curvature="0"
     style="fill:currentColor;stroke-width:0.51339281"
     sodipodi:nodetypes="sssssssssccccc" />
</svg>
